<svg width="512" height="512" viewBox="0 0 512 512" fill="none" xmlns="http://www.w3.org/2000/svg">
<path fill-rule="evenodd" clip-rule="evenodd" d="M88.4793 415.36C106.735 419.128 122.062 425.054 142.54 425.837C180.79 427.295 180.918 400.732 240.808 442.926C253.722 452.024 268.458 460.475 275.426 472.914C219.604 488.805 261.177 483.024 176.786 461.626C153.816 455.803 125.623 447.709 106.693 433.932C103.23 431.412 100.022 428.775 97.1745 426.13C91.4075 420.767 92.5581 420.068 88.4793 415.36ZM194.919 274.098C194.045 271.542 193.023 269.064 191.87 266.667L100.355 357.783C102.762 358.934 105.254 359.952 107.818 360.821C111.359 362.023 115.002 362.945 118.705 363.553C122.294 364.144 126.065 364.45 129.998 364.45C139.335 364.45 148.198 362.619 156.244 359.299C164.58 355.86 172.125 350.782 178.48 344.454C184.835 338.125 189.935 330.616 193.39 322.312C196.724 314.304 198.563 305.48 198.563 296.184C198.563 292.268 198.256 288.511 197.665 284.938C197.052 281.25 196.125 277.624 194.919 274.098ZM152.184 231.55C148.643 230.349 145.001 229.426 141.294 228.816C137.708 228.228 133.935 227.921 130.001 227.921C120.665 227.921 111.802 229.755 103.756 233.072C95.4192 236.512 87.8774 241.59 81.5197 247.917C75.1677 254.244 70.0642 261.753 66.6097 270.056V270.087C63.2783 278.098 61.4362 286.914 61.4362 296.184C61.4362 300.103 61.7442 303.858 62.3349 307.428C62.948 311.116 63.8718 314.742 65.0812 318.268C65.9574 320.824 66.9764 323.305 68.1326 325.702L159.645 234.586C157.24 233.437 154.746 232.423 152.184 231.55ZM143.884 212.965C148.559 213.731 153.063 214.866 157.363 216.326C160.896 217.525 164.334 218.957 167.657 220.605C171.067 222.291 174.298 224.161 177.327 226.199L185.459 231.659L65.1875 351.406L59.7062 343.306C57.6597 340.285 55.7785 337.063 54.0792 333.665C52.4303 330.359 50.9941 326.936 49.7904 323.427C48.3234 319.146 47.184 314.661 46.4142 310.006C45.6555 305.433 45.2608 300.811 45.2608 296.184C45.2608 284.79 47.5508 273.889 51.6996 263.922C53.8244 258.821 56.4335 253.988 59.4542 249.464L57.2594 250.598C28.6123 272.264 3.97678 367.893 118.201 395.166C172.204 408.063 178.197 375.875 224.921 401.262C278.399 430.317 281.756 443.601 298.712 454.725C337.869 436.245 366.563 373.843 365.914 320.891C365.133 257.176 335.895 239.288 323.544 210.587C313.827 188.002 322.362 185.251 342.855 185.53C340.856 171.448 337.13 154.019 343.767 141.454C350.363 128.967 360.525 129.633 377.484 127.685C366.709 99.3079 334.145 69.2192 306.895 54.9902C273.262 37.4359 232.129 29.5535 189.18 28.0093L190.017 214.578C186.223 212.042 182.184 209.712 177.923 207.602C173.696 205.509 169.32 203.686 164.824 202.158C159.351 200.302 153.618 198.858 147.669 197.883C141.821 196.921 135.914 196.419 129.998 196.419C121.278 196.419 112.782 197.465 104.627 199.435L104.296 199.418C103.795 166.097 103.862 124.449 104.271 91.1105C105.077 25.1719 98.7926 41.7311 71.7495 26.1697L71.8727 0C145.219 0.794374 223.353 -2.87089 291.31 15.3021C357.625 33.0404 394.208 57.8081 437.309 102.354C471.452 137.639 503.402 207.008 495.396 275.712C488.629 333.804 450.377 389.285 411.176 423.424C370.362 458.964 324.053 482.497 259.85 505.244C230.562 515.621 237.723 513.676 214.126 501.933C179.258 484.582 129.914 486.567 89.0588 454.067C42.4109 416.96 6.31155 354.656 21.398 292.82C35.5382 234.867 85.0863 213.692 123.492 212.064C125.642 211.9 127.812 211.814 130.001 211.814C134.646 211.816 139.287 212.209 143.884 212.965ZM205.921 258.701C207.569 262.007 209.006 265.427 210.209 268.939C211.676 273.22 212.816 277.705 213.586 282.359C214.344 286.936 214.739 291.558 214.739 296.187C214.739 307.559 212.449 318.449 208.303 328.416C203.983 338.791 197.696 348.095 189.916 355.838C182.136 363.586 172.794 369.847 162.372 374.147C152.361 378.275 141.423 380.555 129.998 380.555C125.354 380.555 120.713 380.162 116.116 379.407C111.441 378.64 106.936 377.506 102.636 376.045C99.1089 374.847 95.6739 373.417 92.3538 371.773C88.9412 370.086 85.7078 368.21 82.6731 366.176L74.5378 360.715L194.809 240.968L200.294 249.065C202.34 252.087 204.224 255.303 205.921 258.701ZM388.934 331.602C387.235 284.082 391.641 276.869 375.351 231.542C371.015 219.476 340.433 151.017 371.451 147.171C399.082 143.743 402.596 205.896 404.217 230.965C406.176 261.382 399.662 306.999 388.934 331.602ZM133.016 28.6337L157.142 28.4024C156.862 78.0326 156.58 125.873 156.3 175.501C148.551 172.825 140.802 172.99 133.053 172.7L133.016 28.6337ZM385.846 405.61C391.317 385.118 459.641 297.812 420.832 161.289C409.303 120.728 397.907 112.272 391.521 93.8671C409.53 103.11 435.728 134.651 447.665 156.974C478.675 214.963 475.436 289.024 442.11 344.477C431.834 361.574 399.303 399.949 385.846 405.61Z" fill="#1BA1A0"/>
</svg>
