<svg width="136" height="50" viewBox="0 0 136 50" fill="none" xmlns="http://www.w3.org/2000/svg">
<path fill-rule="evenodd" clip-rule="evenodd" d="M6.94635 40.5625C8.74354 40.9305 10.2525 41.5092 12.2685 41.5857C16.034 41.728 16.0467 39.134 21.9426 43.2545C23.214 44.143 24.6647 44.9682 25.3507 46.1831C19.8552 47.7348 23.9479 47.1703 15.6399 45.0807C13.3786 44.512 10.603 43.7216 8.73941 42.3761C8.39849 42.1301 8.08265 41.8726 7.80237 41.6143C7.23463 41.0906 7.3479 41.0222 6.94635 40.5625ZM17.425 26.7674C17.339 26.5178 17.2384 26.2758 17.1249 26.0417L8.11545 34.9398C8.35247 35.0522 8.59775 35.1515 8.8502 35.2365C9.19884 35.3538 9.55739 35.4439 9.92202 35.5032C10.2753 35.5609 10.6466 35.5909 11.0338 35.5909C11.9529 35.5909 12.8255 35.412 13.6176 35.0878C14.4383 34.752 15.181 34.256 15.8067 33.6381C16.4323 33.02 16.9344 32.2867 17.2745 31.4758C17.6027 30.6938 17.7838 29.832 17.7838 28.9243C17.7838 28.5418 17.7535 28.1749 17.6953 27.8259C17.635 27.4658 17.5438 27.1117 17.425 26.7674ZM13.2179 22.6123C12.8693 22.495 12.5107 22.4049 12.1458 22.3453C11.7928 22.2879 11.4213 22.2579 11.0341 22.2579C10.1149 22.2579 9.24238 22.437 8.4503 22.7609C7.62956 23.0968 6.88709 23.5928 6.2612 24.2107C5.63587 24.8285 5.13344 25.5618 4.79335 26.3727V26.3757C4.46539 27.158 4.28404 28.0189 4.28404 28.9243C4.28404 29.307 4.31436 29.6736 4.37251 30.0223C4.43287 30.3824 4.52382 30.7365 4.64288 31.0809C4.72914 31.3305 4.82946 31.5727 4.94328 31.8068L13.9524 22.9087C13.7157 22.7966 13.4701 22.6975 13.2179 22.6123ZM12.4008 20.7973C12.861 20.8722 13.3045 20.983 13.7278 21.1256C14.0756 21.2426 14.414 21.3825 14.7412 21.5434C15.0769 21.7081 15.3949 21.8907 15.6931 22.0897L16.4937 22.6229L4.65335 34.317L4.11372 33.526C3.91226 33.2309 3.72705 32.9163 3.55976 32.5845C3.39743 32.2616 3.25605 31.9274 3.13754 31.5847C2.99312 31.1666 2.88096 30.7286 2.80517 30.2741C2.73048 29.8274 2.69162 29.3761 2.69162 28.9243C2.69162 27.8115 2.91706 26.747 3.3255 25.7736C3.53468 25.2755 3.79154 24.8035 4.08892 24.3617L3.87285 24.4725C1.05262 26.5883 -1.37267 35.927 9.87241 38.5904C15.1888 39.8499 15.7788 36.7066 20.3786 39.1857C25.6434 42.0231 25.9739 43.3204 27.6432 44.4067C31.498 42.6021 34.3229 36.5082 34.259 31.337C34.1821 25.1149 31.3037 23.3679 30.0878 20.5651C29.1311 18.3596 29.9715 18.0909 31.9889 18.1181C31.7921 16.743 31.4252 15.041 32.0787 13.8139C32.728 12.5945 33.7284 12.6595 35.398 12.4693C34.3372 9.69804 31.1315 6.75969 28.4488 5.37014C25.1377 3.65585 21.0883 2.88608 16.86 2.73529L16.9424 20.9549C16.569 20.7072 16.1713 20.4797 15.7518 20.2736C15.3357 20.0692 14.9049 19.8912 14.4623 19.742C13.9235 19.5607 13.359 19.4198 12.7734 19.3245C12.1977 19.2306 11.6161 19.1816 11.0338 19.1816C10.1753 19.1816 9.33884 19.2837 8.53602 19.4761L8.5035 19.4745C8.45416 16.2204 8.46078 12.1532 8.50102 8.89751C8.58039 2.45819 7.96166 4.0753 5.29936 2.55564L5.31148 0C12.5322 0.0775756 20.2243 -0.280361 26.9145 1.49435C33.4429 3.2266 37.0445 5.64532 41.2876 9.99554C44.6489 13.4413 47.7943 20.2156 47.0061 26.925C46.34 32.5981 42.5741 38.0161 38.7149 41.35C34.6969 44.8207 30.1379 47.1189 23.8173 49.3402C20.9339 50.3536 21.6389 50.1636 19.3159 49.0169C15.8833 47.3225 11.0255 47.5163 7.0034 44.3425C2.41106 40.7187 -1.14282 34.6344 0.342393 28.5957C1.73445 22.9362 6.61232 20.8684 10.3933 20.7094C10.605 20.6934 10.8185 20.6849 11.0341 20.6849C11.4913 20.6852 11.9482 20.7236 12.4008 20.7973ZM18.5081 25.2638C18.6704 25.5866 18.8118 25.9206 18.9303 26.2636C19.0747 26.6816 19.1869 27.1196 19.2627 27.5742C19.3374 28.0211 19.3762 28.4724 19.3762 28.9245C19.3762 30.0351 19.1508 31.0986 18.7426 32.0719C18.3174 33.085 17.6984 33.9936 16.9325 34.7498C16.1666 35.5065 15.2469 36.1178 14.2208 36.5378C13.2353 36.9409 12.1585 37.1636 11.0338 37.1636C10.5766 37.1636 10.1196 37.1252 9.66709 37.0515C9.20683 36.9766 8.76339 36.8658 8.34006 36.7232C7.99281 36.6061 7.65464 36.4665 7.32778 36.3059C6.99182 36.1412 6.6735 35.958 6.37475 35.7593L5.57385 35.2261L17.4142 23.5321L17.9541 24.3228C18.1556 24.6179 18.3411 24.932 18.5081 25.2638ZM36.5253 32.383C36.358 27.7424 36.7918 27.0379 35.188 22.6115C34.7611 21.4332 31.7505 14.7478 34.8041 14.3722C37.5243 14.0374 37.8702 20.107 38.0298 22.5552C38.2227 25.5256 37.5814 29.9804 36.5253 32.383ZM11.3309 2.79626L13.706 2.77367C13.6785 7.62037 13.6506 12.2923 13.6231 17.1388C12.8602 16.8775 12.0973 16.8935 11.3345 16.8652L11.3309 2.79626ZM36.2213 39.6104C36.7598 37.6092 43.4861 29.0832 39.6655 15.7508C38.5305 11.7899 37.4086 10.964 36.7799 9.16671C38.5528 10.0693 41.1319 13.1495 42.3071 15.3295C45.3599 20.9925 45.0411 28.225 41.7603 33.6403C40.7486 35.31 37.5461 39.0575 36.2213 39.6104Z" fill="#1BA1A0"/>
<path d="M62.6367 24.4976C61.839 24.4976 61.2911 24.7722 60.9929 25.3213C60.7029 25.8704 60.4088 27.0282 60.1106 28.7949H58.5153V22.9697H59.8085C61.0413 21.2667 62.0323 19.1897 62.7817 16.7387C63.531 14.2877 63.9057 12.2385 63.9057 10.5912C63.9057 9.96254 63.7969 9.54873 63.5794 9.34979C63.3618 9.15084 63.0637 9.03147 62.685 8.99168V8.20385H73.5747V8.99168C73.0107 9.12697 72.632 9.30602 72.4386 9.52884C72.2533 9.7437 72.1606 10.3604 72.1606 11.379V22.9697H74.0944V28.7949H72.499C72.2251 27.1635 71.939 26.0375 71.6409 25.4168C71.3508 24.804 70.7868 24.4976 69.9488 24.4976H62.6367ZM68.4139 22.9697V9.62434H65.8153C65.3238 15.3142 64.0427 19.7627 61.9719 22.9697H68.4139Z" fill="#1BA1A0"/>
<path d="M83.5942 20.2243C82.8609 21.7522 82.1357 22.8941 81.4186 23.6501C80.7015 24.4061 79.7749 24.7841 78.6388 24.7841C78.0023 24.7841 77.2449 24.6687 76.3666 24.438V21.0956H78.1312C78.1715 22.1143 78.5542 22.6236 79.2794 22.6236C80.1496 22.6236 80.9432 21.8954 81.6604 20.4391L77.4423 11.4029C77.0152 10.4878 76.6728 9.86307 76.4149 9.52884C76.1652 9.19461 75.8469 9.01556 75.4601 8.99168V8.20385H81.9021V8.99168C81.2817 9.07126 80.9714 9.37366 80.9714 9.89888C80.9714 10.2013 81.185 10.83 81.612 11.7849L83.6788 16.5358L85.6609 11.8923C86.0154 11.0647 86.1927 10.4122 86.1927 9.93469C86.1927 9.33785 85.8784 9.02351 85.25 8.99168V8.20385H90.0361V8.99168C89.5849 9.08718 89.182 9.36172 88.8275 9.81532C88.481 10.261 88.0781 10.9175 87.6189 11.7849L83.5942 20.2243Z" fill="#1BA1A0"/>
<path d="M102.207 8.57389V12.0356H100.563C100.37 11.1363 100.064 10.4758 99.6447 10.0541C99.2257 9.62433 98.6777 9.40947 98.0009 9.40947C96.7278 9.40947 95.765 10.0143 95.1123 11.2239C94.4597 12.4255 94.1333 14.2121 94.1333 16.5835C94.1333 18.7878 94.4315 20.459 95.0277 21.597C95.624 22.727 96.4982 23.292 97.6504 23.292C98.2386 23.292 98.718 23.1965 99.0887 23.0055C99.4593 22.8066 99.7534 22.5121 99.971 22.1222C100.197 21.7323 100.39 21.1832 100.551 20.4749H102.207V24.0918C101.321 24.2987 100.511 24.4499 99.7776 24.5454C99.0444 24.6409 98.2829 24.6886 97.4933 24.6886C95.8173 24.6886 94.4476 24.3902 93.384 23.7934C92.3285 23.1965 91.5469 22.2973 91.0393 21.0956C90.5397 19.886 90.2899 18.3581 90.2899 16.5119C90.2899 14.785 90.584 13.285 91.1722 12.0117C91.7685 10.7305 92.6427 9.7437 93.7949 9.05136C94.9471 8.35903 96.325 8.01286 97.9284 8.01286C98.7422 8.01286 99.4795 8.05663 100.14 8.14417C100.801 8.2317 101.49 8.37494 102.207 8.57389Z" fill="#1BA1A0"/>
<path d="M107.815 24.4976V23.7098C108.153 23.6541 108.419 23.5825 108.613 23.4949C108.814 23.3994 108.963 23.2681 109.06 23.101C109.157 22.9339 109.217 22.723 109.241 22.4684C109.265 22.2058 109.277 21.8835 109.277 21.5015V9.60046H108.298C107.815 9.60046 107.444 9.65617 107.186 9.76758C106.929 9.87899 106.703 10.0541 106.51 10.2928C106.324 10.5315 106.163 10.8538 106.026 11.2597C105.889 11.6576 105.776 12.0356 105.688 12.3937H104.032V8.20385H118.257V12.3937H116.602C116.449 11.8525 116.328 11.4546 116.239 11.2C116.15 10.9453 116.05 10.7305 115.937 10.5554C115.832 10.3724 115.719 10.2212 115.598 10.1018C115.478 9.98244 115.349 9.88694 115.212 9.81532C115.075 9.7437 114.901 9.69198 114.692 9.66015C114.491 9.62036 114.225 9.60046 113.894 9.60046H113.024V21.5015C113.024 21.9233 113.036 22.2456 113.06 22.4684C113.085 22.6832 113.129 22.8583 113.193 22.9936C113.258 23.1289 113.334 23.2403 113.423 23.3278C113.52 23.4074 113.649 23.483 113.81 23.5546C113.979 23.6183 114.205 23.67 114.487 23.7098V24.4976H107.815Z" fill="#1BA1A0"/>
<path d="M134.719 21.5015C134.719 22.3052 134.787 22.8424 134.924 23.113C135.069 23.3756 135.428 23.5745 136 23.7098V24.4976H129.691V23.7098C130.271 23.5745 130.63 23.3915 130.767 23.1607C130.904 22.922 130.972 22.3689 130.972 21.5015V16.8342C130.972 15.4256 131.008 14.3553 131.081 13.6232H131.008L125.267 21.5015C125.267 22.2893 125.34 22.8225 125.485 23.101C125.638 23.3716 126.001 23.5745 126.573 23.7098V24.4976H120.227V23.7098C120.783 23.5745 121.138 23.3756 121.291 23.113C121.444 22.8424 121.521 22.3052 121.521 21.5015V11.2119C121.521 10.3923 121.448 9.85511 121.303 9.60046C121.158 9.34581 120.8 9.14288 120.227 8.99168V8.20385H126.573V8.99168C126.001 9.15084 125.638 9.36172 125.485 9.62434C125.34 9.88695 125.267 10.4201 125.267 11.2239V16.4761C125.267 17.4708 125.239 18.2547 125.183 18.8276H125.255L130.972 10.9374C130.972 10.2689 130.9 9.81532 130.755 9.57659C130.61 9.32989 130.255 9.13492 129.691 8.99168V8.20385H136V8.99168C135.436 9.14288 135.081 9.34979 134.936 9.6124C134.791 9.86705 134.719 10.4042 134.719 11.2239V21.5015Z" fill="#1BA1A0"/>
<path d="M62.5265 35.854V35.3366H66.694V35.854C66.3289 35.9429 66.096 36.0683 65.9955 36.2303C65.8949 36.3923 65.8447 36.6981 65.8447 37.1476C68.8558 37.1685 70.3614 38.3497 70.3614 40.6913C70.3614 43.1007 68.8558 44.3342 65.8447 44.3917C65.8447 44.8778 65.8949 45.2045 65.9955 45.3717C66.096 45.539 66.3289 45.667 66.694 45.7559V46.2733H62.5265V45.7559C62.8652 45.6775 63.0901 45.5599 63.2013 45.4031C63.3177 45.2463 63.3786 44.9092 63.3839 44.3917C61.9233 44.3917 60.796 44.0938 60.0022 43.498C59.2137 42.8969 58.8195 42.0084 58.8195 40.8324C58.8195 39.6721 59.2111 38.7731 59.9943 38.1354C60.7828 37.4978 61.9127 37.1685 63.3839 37.1476C63.3786 36.6615 63.3124 36.3453 63.1854 36.199C63.0637 36.0474 62.8441 35.9324 62.5265 35.854ZM63.3839 43.5529V38.0022C62.0026 38.1119 61.312 38.9978 61.312 40.6599C61.312 41.5275 61.492 42.2122 61.8518 42.714C62.217 43.2157 62.7276 43.4954 63.3839 43.5529ZM65.8447 38.0022V43.5529C66.485 43.5006 66.9824 43.2366 67.337 42.761C67.6969 42.2854 67.8768 41.6686 67.8768 40.9108C67.8768 39.1128 67.1994 38.1433 65.8447 38.0022Z" fill="#1BA1A0"/>
<path d="M76.4023 45.2463L76.2832 45.2071C75.8493 45.6252 75.4259 45.9284 75.0131 46.1165C74.6056 46.3047 74.1717 46.3988 73.7113 46.3988C73.2562 46.3988 72.8593 46.3177 72.5206 46.1557C72.1872 45.9885 71.9332 45.7585 71.7585 45.4658C71.5892 45.1731 71.5045 44.836 71.5045 44.4544C71.5045 43.6861 71.8855 43.0825 72.6476 42.6434C73.4149 42.1992 74.5765 41.9195 76.1324 41.8045V41.0597C76.1324 40.5737 76.0768 40.2 75.9657 39.9386C75.8546 39.6721 75.7117 39.4865 75.537 39.382C75.3624 39.2722 75.1534 39.2174 74.9099 39.2174C74.6665 39.2174 74.4548 39.2592 74.2749 39.3428C74.1003 39.4264 73.9415 39.5858 73.7986 39.821C73.6557 40.051 73.5499 40.3724 73.4811 40.7853H71.9808V39.3585C72.4677 39.1442 72.8725 38.9795 73.1953 38.8646C73.5181 38.7496 73.8356 38.6555 74.1479 38.5823C74.4654 38.5039 74.7485 38.449 74.9972 38.4177C75.246 38.3863 75.4947 38.3706 75.7434 38.3706C76.3838 38.3706 76.8944 38.4543 77.2755 38.6215C77.6618 38.7888 77.9502 39.0606 78.1407 39.4369C78.3312 39.8132 78.4265 40.3332 78.4265 40.997V44.0546C78.4265 44.3996 78.4344 44.6661 78.4503 44.8543C78.4662 45.0424 78.49 45.1836 78.5218 45.2776C78.5588 45.3665 78.6038 45.4397 78.6567 45.4972C78.7096 45.5494 78.7731 45.5939 78.8472 45.6304C78.9266 45.6618 79.0721 45.7036 79.2838 45.7559V46.2733H76.3308L76.4023 45.2463ZM76.1403 42.5729C75.3201 42.5938 74.7115 42.7453 74.3146 43.0276C73.923 43.3098 73.7272 43.7227 73.7272 44.2663C73.7272 44.5903 73.8171 44.8386 73.997 45.0111C74.177 45.1783 74.4257 45.262 74.7432 45.262C74.9867 45.262 75.2169 45.1992 75.4338 45.0738C75.6508 44.9431 75.8228 44.7707 75.9498 44.5564C76.0768 44.3421 76.1403 44.1147 76.1403 43.8743V42.5729Z" fill="#1BA1A0"/>
<path d="M83.3799 47.6767C83.3799 48.0687 83.401 48.3457 83.4434 48.5077C83.4857 48.6697 83.5598 48.7978 83.6656 48.8919C83.7768 48.9859 83.9699 49.0643 84.2451 49.1271V49.6445H80.2919V49.1271C80.5407 49.0539 80.7127 48.9729 80.8079 48.884C80.9085 48.7952 80.9799 48.6697 81.0222 48.5077C81.0646 48.3509 81.0857 48.0739 81.0857 47.6767V40.8167C81.0857 40.4456 81.0805 40.1817 81.0699 40.0249C81.0646 39.8681 81.0461 39.7348 81.0143 39.625C80.9878 39.5153 80.9482 39.4264 80.8952 39.3585C80.8423 39.2853 80.7629 39.2226 80.6571 39.1703C80.5565 39.118 80.4057 39.071 80.2046 39.0292V38.4961L82.4035 38.4334H83.3799L83.2608 39.5701L83.356 39.5937C83.8111 39.1599 84.2345 38.8489 84.6261 38.6607C85.023 38.4673 85.4305 38.3706 85.8486 38.3706C86.7906 38.3706 87.4971 38.6999 87.9681 39.3585C88.439 40.0118 88.6746 40.9918 88.6746 42.2985C88.6746 43.2027 88.5343 43.9605 88.2538 44.572C87.9786 45.1783 87.5659 45.6357 87.0155 45.944C86.4651 46.2472 85.7877 46.3988 84.9833 46.3988C84.4383 46.3988 83.9038 46.3308 83.3799 46.1949V47.6767ZM83.3799 43.7018C83.3799 44.3447 83.491 44.8203 83.7132 45.1287C83.9408 45.4318 84.2901 45.5834 84.7611 45.5834C85.2479 45.5834 85.6184 45.3325 85.8724 44.8308C86.1317 44.3238 86.2614 43.6025 86.2614 42.6669C86.2614 41.6268 86.145 40.8559 85.9121 40.3541C85.6845 39.8524 85.3273 39.6015 84.8405 39.6015C84.6023 39.6015 84.3695 39.6616 84.1419 39.7818C83.9196 39.902 83.7371 40.0745 83.5942 40.2993C83.4513 40.5188 83.3799 40.767 83.3799 41.0441V43.7018Z" fill="#1BA1A0"/>
<path d="M96.7396 38.4961H100.193V39.0135C99.8593 39.071 99.6476 39.1991 99.5576 39.3977C99.4677 39.5911 99.4227 40.0066 99.4227 40.6442V44.1408C99.4227 44.7576 99.465 45.1627 99.5497 45.356C99.6344 45.5442 99.8461 45.6775 100.185 45.7559V46.2733H96.4777V45.7559C96.8164 45.6775 97.028 45.5468 97.1127 45.3639C97.2027 45.1757 97.2477 44.768 97.2477 44.1408V42.0476C97.2477 41.5249 97.2609 40.8716 97.2873 40.0876H97.1921C96.991 40.6834 96.7502 41.308 96.4697 41.9613L95.1679 45.0738H93.8899L92.6436 42.0162C92.3472 41.2897 92.1144 40.6468 91.945 40.0876H91.8418C91.8789 40.6207 91.8974 41.2453 91.8974 41.9613V44.1408C91.8974 44.7628 91.9397 45.1679 92.0244 45.356C92.1144 45.5442 92.326 45.6775 92.6594 45.7559V46.2733H90.024V45.7559C90.3627 45.6775 90.5744 45.5468 90.6591 45.3639C90.749 45.1757 90.794 44.768 90.794 44.1408V40.6364C90.794 39.9987 90.749 39.5832 90.6591 39.3898C90.5744 39.1964 90.3653 39.071 90.0319 39.0135V38.4961H93.5406L95.0488 42.7375L96.7396 38.4961Z" fill="#1BA1A0"/>
<path d="M106.249 45.2463L106.13 45.2071C105.696 45.6252 105.273 45.9284 104.86 46.1165C104.453 46.3047 104.019 46.3988 103.558 46.3988C103.103 46.3988 102.706 46.3177 102.368 46.1557C102.034 45.9885 101.78 45.7585 101.606 45.4658C101.436 45.1731 101.352 44.836 101.352 44.4544C101.352 43.6861 101.733 43.0825 102.495 42.6434C103.262 42.1992 104.424 41.9195 105.98 41.8045V41.0597C105.98 40.5737 105.924 40.2 105.813 39.9386C105.702 39.6721 105.559 39.4865 105.384 39.382C105.21 39.2722 105.001 39.2174 104.757 39.2174C104.514 39.2174 104.302 39.2592 104.122 39.3428C103.947 39.4264 103.789 39.5858 103.646 39.821C103.503 40.051 103.397 40.3724 103.328 40.7853H101.828V39.3585C102.315 39.1442 102.72 38.9795 103.042 38.8646C103.365 38.7496 103.683 38.6555 103.995 38.5823C104.313 38.5039 104.596 38.449 104.844 38.4177C105.093 38.3863 105.342 38.3706 105.591 38.3706C106.231 38.3706 106.742 38.4543 107.123 38.6215C107.509 38.7888 107.797 39.0606 107.988 39.4369C108.178 39.8132 108.274 40.3332 108.274 40.997V44.0546C108.274 44.3996 108.282 44.6661 108.297 44.8543C108.313 45.0424 108.337 45.1836 108.369 45.2776C108.406 45.3665 108.451 45.4397 108.504 45.4972C108.557 45.5494 108.62 45.5939 108.694 45.6304C108.774 45.6618 108.919 45.7036 109.131 45.7559V46.2733H106.178L106.249 45.2463ZM105.987 42.5729C105.167 42.5938 104.559 42.7453 104.162 43.0276C103.77 43.3098 103.574 43.7227 103.574 44.2663C103.574 44.5903 103.664 44.8386 103.844 45.0111C104.024 45.1783 104.273 45.262 104.59 45.262C104.834 45.262 105.064 45.1992 105.281 45.0738C105.498 44.9431 105.67 44.7707 105.797 44.5564C105.924 44.3421 105.987 44.1147 105.987 43.8743V42.5729Z" fill="#1BA1A0"/>
</svg>
