<svg xmlns="http://www.w3.org/2000/svg" xmlns:xlink="http://www.w3.org/1999/xlink">
	<symbol id="facebook" viewBox="0 0 20 20" fill="none">
		<path d="M9.6 0C4.2984 0 0 4.2984 0 9.6C0 14.4128 3.5456 18.3872 8.1648 19.0816V12.144H5.7896V9.6208H8.1648V7.9416C8.1648 5.1616 9.5192 3.9416 11.8296 3.9416C12.936 3.9416 13.5216 4.024 13.7984 4.0608V6.2632H12.2224C11.2416 6.2632 10.8992 7.1936 10.8992 8.2416V9.6208H13.7736L13.384 12.144H10.8992V19.1016C15.5848 18.4664 19.2 14.46 19.2 9.6C19.2 4.2984 14.9016 0 9.6 0Z" fill="currentColor" />
	</symbol>
	<symbol id="instagram" viewBox="0 0 21 21" fill="none">
		<path d="M10.4 0C4.6656 0 0 4.6656 0 10.4C0 16.1344 4.6656 20.8 10.4 20.8C16.1344 20.8 20.8 16.1344 20.8 10.4C20.8 4.6656 16.1344 0 10.4 0ZM7.73281 3.2H13.0656C15.5656 3.2 17.6 5.23361 17.6 7.73281V13.0656C17.6 15.5656 15.5664 17.6 13.0672 17.6H7.73437C5.23437 17.6 3.2 15.5664 3.2 13.0672V7.73437C3.2 5.23437 5.23361 3.2 7.73281 3.2ZM7.73281 4.8C6.11601 4.8 4.8 6.11677 4.8 7.73437V13.0672C4.8 14.684 6.11677 16 7.73437 16H13.0672C14.684 16 16 14.6832 16 13.0656V7.73281C16 6.11601 14.6832 4.8 13.0656 4.8H7.73281ZM14.1344 6.13281C14.4288 6.13281 14.6672 6.37122 14.6672 6.66562C14.6672 6.96002 14.4288 7.2 14.1344 7.2C13.84 7.2 13.6 6.96002 13.6 6.66562C13.6 6.37122 13.84 6.13281 14.1344 6.13281ZM10.4 6.4C12.6056 6.4 14.4 8.1944 14.4 10.4C14.4 12.6056 12.6056 14.4 10.4 14.4C8.1944 14.4 6.4 12.6056 6.4 10.4C6.4 8.1944 8.1944 6.4 10.4 6.4ZM10.4 8C9.76348 8 9.15303 8.25286 8.70294 8.70294C8.25286 9.15303 8 9.76348 8 10.4C8 11.0365 8.25286 11.647 8.70294 12.0971C9.15303 12.5471 9.76348 12.8 10.4 12.8C11.0365 12.8 11.647 12.5471 12.0971 12.0971C12.5471 11.647 12.8 11.0365 12.8 10.4C12.8 9.76348 12.5471 9.15303 12.0971 8.70294C11.647 8.25286 11.0365 8 10.4 8Z" fill="currentColor" />
	</symbol>
	<symbol id="twitter" viewBox="0 0 20 20" fill="none">
		<path d="M9.6 0C4.2984 0 0 4.2984 0 9.6C0 14.9016 4.2984 19.2 9.6 19.2C14.9016 19.2 19.2 14.9016 19.2 9.6C19.2 4.2984 14.9016 0 9.6 0ZM14.7712 7.628C14.776 7.7344 14.7784 7.84 14.7784 7.9456C14.7784 11.2 12.3024 14.9504 7.7736 14.9504C6.3824 14.9504 5.0888 14.5432 4 13.844C4.1928 13.8672 4.3888 13.8776 4.588 13.8776C5.7424 13.8776 6.8032 13.4848 7.6448 12.8232C6.5672 12.8032 5.6576 12.0912 5.3448 11.1136C5.4952 11.1424 5.6496 11.1576 5.808 11.1576C6.0328 11.1576 6.2512 11.1272 6.4568 11.0712C5.3304 10.8456 4.4816 9.8504 4.4816 8.6576C4.4816 8.6472 4.4816 8.6368 4.4816 8.6264C4.8136 8.8112 5.1928 8.9216 5.5968 8.9344C4.9368 8.4936 4.5016 7.7392 4.5016 6.8856C4.5016 6.4336 4.6224 6.0104 4.8344 5.648C6.0488 7.1376 7.8632 8.1184 9.9088 8.2208C9.8672 8.0408 9.8456 7.8528 9.8456 7.66C9.8456 6.3008 10.948 5.1976 12.3072 5.1976C13.0152 5.1976 13.6552 5.4968 14.104 5.9752C14.6648 5.864 15.192 5.66 15.668 5.3776C15.484 5.9528 15.0936 6.4344 14.5848 6.74C15.0824 6.6808 15.5568 6.5488 15.9992 6.3528C15.6704 6.8472 15.2536 7.28 14.7712 7.628Z" fill="currentColor" />
	</symbol>
	<symbol id="wk" viewBox="0 0 20 20" fill="none">
		<path d="M9.6 0C4.2984 0 0 4.2984 0 9.6C0 14.9016 4.2984 19.2 9.6 19.2C14.9016 19.2 19.2 14.9016 19.2 9.6C19.2 4.2984 14.9016 0 9.6 0ZM14.6888 12.7736L13.1944 12.7944C13.1944 12.7944 12.872 12.8576 12.4504 12.5664C11.8912 12.1824 11.364 11.1832 10.9528 11.3128C10.536 11.4456 10.5488 12.3448 10.5488 12.3448C10.5488 12.3448 10.552 12.5032 10.4568 12.6064C10.3536 12.7176 10.1512 12.7064 10.1512 12.7064H9.4816C9.4816 12.7064 8.0048 12.8288 6.7032 11.472C5.2856 9.9928 4.0328 7.0736 4.0328 7.0736C4.0328 7.0736 3.9592 6.8896 4.0376 6.7952C4.1264 6.6912 4.3656 6.688 4.3656 6.688L5.9656 6.68C5.9656 6.68 6.116 6.7064 6.2248 6.7864C6.3136 6.852 6.364 6.9752 6.364 6.9752C6.364 6.9752 6.6224 7.6304 6.9656 8.224C7.6344 9.3808 7.9448 9.6344 8.172 9.5104C8.5032 9.3296 8.404 7.8752 8.404 7.8752C8.404 7.8752 8.4104 7.3472 8.2376 7.112C8.1032 6.9288 7.8504 6.8744 7.74 6.8608C7.6496 6.8488 7.7968 6.6392 7.9888 6.5448C8.2768 6.404 8.7856 6.396 9.3864 6.4016C9.8544 6.4064 9.9896 6.4352 10.172 6.48C10.724 6.6136 10.5368 7.1288 10.5368 8.3648C10.5368 8.7608 10.4656 9.3176 10.7504 9.5008C10.8736 9.58 11.1736 9.5128 11.9216 8.2376C12.2776 7.6328 12.544 6.9224 12.544 6.9224C12.544 6.9224 12.6024 6.796 12.6928 6.7416C12.7856 6.6856 12.9104 6.7032 12.9104 6.7032L14.5944 6.6928C14.5944 6.6928 15.1 6.632 15.1824 6.8616C15.2688 7.1016 14.9936 7.6624 14.3056 8.58C13.176 10.0872 13.0504 9.9472 13.9888 10.8192C14.8848 11.652 15.0696 12.0568 15.1008 12.108C15.4712 12.7248 14.6888 12.7736 14.6888 12.7736Z" fill="currentColor" />
	</symbol>
</svg>
